<svg width="112" height="112" viewBox="0 0 112 112" fill="none" xmlns="http://www.w3.org/2000/svg">
<path d="M101.535 17.605L81.3541 7.889C80.2144 7.3395 78.932 7.15816 77.6847 7.37013C76.4373 7.5821 75.2868 8.17687 74.3926 9.072L8.3301 69.3C7.52857 70.0273 7.04878 71.0432 6.99627 72.1243C6.94376 73.2053 7.32283 74.263 8.0501 75.0645C8.1376 75.159 8.2251 75.25 8.3196 75.334L13.7131 80.234C14.4179 80.8755 15.325 81.2498 16.2771 81.292C17.2291 81.3342 18.1658 81.0416 18.9246 80.465L98.4971 20.125C99.0981 19.6689 99.8145 19.3897 100.566 19.3187C101.317 19.2477 102.073 19.3877 102.749 19.7231C103.425 20.0585 103.993 20.5759 104.391 21.217C104.789 21.8581 105 22.5975 105 23.352V23.1175C105 21.9657 104.675 20.8372 104.062 19.862C103.449 18.8868 102.573 18.1045 101.535 17.605Z" fill="#0065A9"/>
<path d="M101.535 94.395L81.3541 104.115C80.2141 104.662 78.9321 104.843 77.6851 104.631C76.4381 104.419 75.2876 103.825 74.3926 102.932L8.3301 42.7C7.52857 41.9727 7.04878 40.9568 6.99627 39.8757C6.94376 38.7947 7.32283 37.7371 8.0501 36.9355C8.1376 36.841 8.2251 36.75 8.3196 36.666L13.7131 31.766C14.4186 31.1219 15.3278 30.7459 16.2822 30.7037C17.2366 30.6615 18.1755 30.9557 18.9351 31.535L98.4971 91.875C99.0981 92.3311 99.8145 92.6103 100.566 92.6813C101.317 92.7523 102.073 92.6123 102.749 92.2769C103.425 91.9415 103.993 91.4242 104.391 90.783C104.789 90.1419 105 89.4025 105 88.648V88.9C104.996 90.0488 104.669 91.1733 104.057 92.1451C103.444 93.1168 102.57 93.8965 101.535 94.395Z" fill="#007ACC"/>
<path d="M80.9755 103.831C79.8355 104.379 78.5535 104.56 77.3065 104.348C76.0595 104.136 74.909 103.542 74.014 102.648C74.5166 103.145 75.1545 103.481 75.8476 103.616C76.5407 103.751 77.2583 103.679 77.9105 103.408C78.5626 103.137 79.1203 102.68 79.5136 102.093C79.9069 101.507 80.1184 100.817 80.1215 100.111V11.323C80.1221 10.6135 79.9121 9.91976 79.5181 9.32972C79.1241 8.73969 78.5638 8.27986 77.9083 8.0085C77.2528 7.73714 76.5314 7.66644 75.8357 7.80538C75.1399 7.94432 74.501 8.28663 74 8.78895C74.8943 7.89415 76.0446 7.29933 77.2918 7.08678C78.5389 6.87422 79.8212 7.05442 80.9615 7.60245L101.139 17.3045C102.18 17.8014 103.06 18.5827 103.676 19.5581C104.292 20.5335 104.62 21.6632 104.622 22.817V88.6169C104.622 89.7698 104.296 90.8992 103.683 91.8751C103.069 92.851 102.192 93.6337 101.153 94.1329L80.9755 103.831Z" fill="#1F9CF0"/>
</svg>
