<svg xmlns="http://www.w3.org/2000/svg" width="64" height="64" id="bug">
  <path fill="#726f6f" d="M604.988 1136.362h2v-1h-2l-.148.01-.483.041-.05.01-.05.016-.446.139-.05.014-.042.024-.117.064.476.879.07-.04.36-.11.431-.044zm3 0h2v-1h-2zm3 0h2v-1h-2zm3 0h2v-1h-2zm3 0h2v-1h-2zm3 0h2v-1h-2zm3 0h2v-1h-2zm3 0h2v-1h-2zm3 0h2v-1h-2zm3 0h2v-1h-2zm3 0h2v-1h-2zm3 0h2v-1h-2zm3 0h2v-1h-2zm2.87.03-.034.106.026.02.32.174.271.223.239.287.17.314.024.047.06-.033.883-.271-.026-.08-.015-.05-.024-.042-.218-.404-.024-.043-.03-.037-.292-.354-.031-.037-.037-.03-.354-.292-.037-.03-.04-.023-.407-.22-.043-.025-.049-.014-.072-.024zm-41.337.203-.03.037-.024.043-.219.405-.023.043-.016.049-.139.447-.013.049-.006.049-.049.482-.002.025V1138.591h1v-.312l.04-.41.108-.354.172-.318.127-.153-.771-.637zm42.479 4.739h1v-2.953h-1zm-43 .257h1v-2h-1zm43 2.743h1v-2h-1zm-43 .257h1v-2h-1zm44 .743h-1zm-44 2.257h1v-2h-1zm0 3h1v-2h-1zm0 3h1v-2h-1zm0 3h1v-2h-1zm0 3h1v-2h-1zm0 3.767h1v-2.767h-1z" color="#000" font-family="sans-serif" font-weight="400" overflow="visible" style="line-height:normal;text-indent:0;text-align:start;text-decoration-line:none;text-decoration-style:solid;text-decoration-color:#000;text-transform:none;block-progression:tb;isolation:auto;mix-blend-mode:normal" transform="translate(-593 -1109.362)"></path>
  <path fill="#474545" d="M13 28h36c1.108 0 2 .892 2 2v23c0 1.108-.892 2-2 2H13c-1.108 0-2-.892-2-2V30c0-1.108.892-2 2-2z"></path>
  <path fill="#f4608a" d="M51.5 30c-.831 0-1.5.669-1.5 1.5v2h3v-2c0-.831-.669-1.5-1.5-1.5z"></path>
  <path fill="#cfd3d6" d="M7 53v2c0 1.662 1.338 3 3 3h42c1.662 0 3-1.338 3-3v-2H7z"></path>
  <path fill="#474545" d="M623.22 1127.744a.5.5 0 0 0-.491.508 1.04 1.04 0 0 1-1.051 1.047.5.5 0 1 0 0 1c1.126 0 2.05-.921 2.05-2.047a.5.5 0 0 0-.507-.508zm1.548 0a.5.5 0 0 0-.493.508c0 1.125.925 2.047 2.051 2.047a.5.5 0 1 0 0-1 1.04 1.04 0 0 1-1.05-1.047.5.5 0 0 0-.508-.508z" color="#000" font-family="sans-serif" font-weight="400" overflow="visible" style="line-height:normal;text-indent:0;text-align:start;text-decoration-line:none;text-decoration-style:solid;text-decoration-color:#000;text-transform:none;block-progression:tb;isolation:auto;mix-blend-mode:normal" transform="translate(-593 -1109.362)"></path>
  <path fill="#474545" fill-rule="evenodd" d="M616.48 1119.492a.5.5 0 0 0-.453.664l.52 1.55a.5.5 0 0 0 .404.335l3.643.514a.5.5 0 0 0 .14-.99l-3.336-.471-.421-1.256a.5.5 0 0 0-.497-.346zm15.024-.002a.5.5 0 0 0-.48.35l-.42 1.254-3.334.47a.5.5 0 1 0 .138.99l3.643-.513a.5.5 0 0 0 .404-.338l.518-1.547a.5.5 0 0 0-.47-.666zm-13.01-4.129a.5.5 0 0 0-.492.508v2.578a.5.5 0 0 0 .21.409l2.901 2.062a.5.5 0 1 0 .58-.814l-2.691-1.914v-2.32a.5.5 0 0 0-.508-.509zm11 0a.5.5 0 0 0-.492.508v2.32l-2.695 1.915a.5.5 0 1 0 .58.816l2.904-2.064a.5.5 0 0 0 .21-.409v-2.578a.5.5 0 0 0-.507-.508zm-8.38 7.32-3.112 2.213v11.468h1v-10.952l2.691-1.914zm5.773 0-.58.815 2.695 1.914v10.952h1v-11.468z" color="#000" font-family="sans-serif" font-weight="400" overflow="visible" style="line-height:normal;text-indent:0;text-align:start;text-decoration-line:none;text-decoration-style:solid;text-decoration-color:#000;text-transform:none;block-progression:tb;isolation:auto;mix-blend-mode:normal" transform="translate(-593 -1109.362)"></path>
  <path fill="#f4608a" d="M28.415 17.084A2.585 2.58 0 0 1 31 14.504a2.585 2.58 0 0 1 2.585 2.58A2.585 2.58 0 0 1 31 19.663a2.585 2.58 0 0 1-2.585-2.58z"></path>
  <path fill="#49b2d6" d="M26.346 11.41A4.654 4.643 0 0 1 31 6.766a4.654 4.643 0 0 1 4.654 4.642A4.654 4.643 0 0 1 31 16.052a4.654 4.643 0 0 1-4.654-4.643z"></path>
  <path fill="#1395bf" d="M31.259 16.043a4.654 4.643 0 0 0 4.395-4.634 4.654 4.643 0 0 0-2.586-4.152c-1.085.556-1.81 1.529-1.81 2.65v6.136zm-.518-.004V9.907c0-1.123-.725-2.098-1.813-2.653a4.654 4.643 0 0 0-2.582 4.155 4.654 4.643 0 0 0 4.395 4.63z"></path>
  <path fill="#f47b9f" fill-rule="evenodd" d="M644 1140.861v2h1v-2h-1z" color="#000" font-family="sans-serif" font-weight="400" overflow="visible" style="line-height:normal;text-indent:0;text-align:start;text-decoration-line:none;text-decoration-style:solid;text-decoration-color:#000;text-transform:none;block-progression:tb;isolation:auto;mix-blend-mode:normal" transform="translate(-593 -1109.362)"></path>
  <path fill="#eff4f7" d="M7 53v2h48v-2z"></path>
  <path fill="#cfd3d6" d="M49 33h5v2h-5z"></path>
  <path fill="#49b2d6" d="M13 30h36v21H13z"></path>
  <path fill="#726f6f" d="M37 53c0 1.108-.892 2-2 2h-8c-1.108 0-2-.892-2-2h12z"></path>
  <path fill="#5e5c5c" d="M47.1 34h8.8c.61 0 1.1.446 1.1 1v17c0 .554-.49 1-1.1 1h-8.8c-.61 0-1.1-.446-1.1-1V35c0-.554.49-1 1.1-1z"></path>
  <path fill="none" stroke="#474545" d="M53.493 35.5h-2"></path>
  <path fill="#474545" d="M48.993 35.5a.5.5 0 0 0 .5.5.5.5 0 0 0 .5-.5.5.5 0 0 0-.5-.5.5.5 0 0 0-.5.5zM50.5 51a1 1 0 0 0 1 1 1 1 0 0 0 1-1 1 1 0 0 0-1-1 1 1 0 0 0-1 1z"></path>
  <path fill="#ffdc73" d="M47 37h9v12h-9z"></path>
  <path fill="#49b2d6" d="M49 40v2h-4v2h4v2l4-3-4-3z"></path>
  <path fill="#5e5c5c" d="m43 42-4 3 4 3v-2h4v-2h-4v-2z"></path>
  <path fill="#474545" d="M607 1118.861v2.707l5 5v9.793h1v-10.207l-5-5v-2.293h-1z" color="#000" font-family="sans-serif" font-weight="400" overflow="visible" style="line-height:normal;text-indent:0;text-align:start;text-decoration-line:none;text-decoration-style:solid;text-decoration-color:#000;text-transform:none;block-progression:tb;isolation:auto;mix-blend-mode:normal" transform="translate(-593 -1109.362)"></path>
  <path fill="#474545" d="M607.5 1116.361c-.823 0-1.5.678-1.5 1.5 0 .823.677 1.5 1.5 1.5s1.5-.677 1.5-1.5c0-.822-.677-1.5-1.5-1.5zm0 1c.282 0 .5.218.5.5 0 .282-.218.5-.5.5a.493.493 0 0 1-.5-.5c0-.282.218-.5.5-.5zm32.5 1.5v2.293l-5 5v10.207h1v-9.793l5-5v-2.707h-1z" color="#000" font-family="sans-serif" font-weight="400" overflow="visible" style="line-height:normal;text-indent:0;text-align:start;text-decoration-line:none;text-decoration-style:solid;text-decoration-color:#000;text-transform:none;block-progression:tb;isolation:auto;mix-blend-mode:normal" transform="translate(-593 -1109.362)"></path>
  <path fill="#474545" d="M640.5 1116.361c-.823 0-1.5.678-1.5 1.5 0 .823.677 1.5 1.5 1.5s1.5-.677 1.5-1.5c0-.822-.677-1.5-1.5-1.5zm0 1c.282 0 .5.218.5.5 0 .282-.218.5-.5.5a.493.493 0 0 1-.5-.5c0-.282.218-.5.5-.5z" color="#000" font-family="sans-serif" font-weight="400" overflow="visible" style="line-height:normal;text-indent:0;text-align:start;text-decoration-line:none;text-decoration-style:solid;text-decoration-color:#000;text-transform:none;block-progression:tb;isolation:auto;mix-blend-mode:normal" transform="translate(-593 -1109.362)"></path>
  <path fill="#474545" d="M617.564 1152.362c.09 0 .173-.038.195-.127l.345-1.155h2.078l.345 1.155c.03.09.105.127.187.127.135 0 .3-.098.3-.217 0-.015-.007-.03-.007-.045l-1.56-5.093c-.037-.112-.165-.172-.3-.172-.127 0-.255.052-.292.172l-1.568 5.093c-.008.015-.008.037-.008.053 0 .127.158.21.285.21zm.668-1.71.915-3.022.907 3.022h-1.822zm3.705-4.012c-.135 0-.24.075-.24.18v5.347c0 .097.105.195.24.195.143 0 .248-.098.248-.195v-5.347c0-.105-.105-.18-.248-.18zm2.55 2.13c-.787 0-1.432.63-1.432 1.38v.84c0 .855.668 1.425 1.613 1.425.697 0 1.125-.315 1.125-.495 0-.09-.09-.233-.21-.233-.165 0-.308.3-.9.3-.66 0-1.14-.375-1.14-.975v-.277h1.695c.33 0 .652-.023.652-.6 0-.795-.66-1.365-1.402-1.365zm-.944 1.605v-.285c0-.503.42-.915.937-.915.555 0 .938.465.938.945 0 .21-.075.255-.375.255h-1.5zm4.83-1.155c.104 0 .194-.105.194-.225 0-.12-.09-.225-.195-.225h-.262c-.488 0-.84.292-1.005.592v-.367c0-.105-.105-.18-.233-.18-.135 0-.24.075-.24.18v3.172c0 .097.105.195.24.195.143 0 .248-.098.248-.195v-1.852c0-.683.495-1.095.99-1.095h.262zm1.208 0h.967c.098 0 .173-.098.173-.203 0-.105-.075-.202-.173-.202h-.967v-1.508c0-.105-.128-.18-.248-.18-.112 0-.24.075-.24.18v3.953c0 .772.413 1.102 1.185 1.102h.21a.22.22 0 0 0 .225-.225.22.22 0 0 0-.225-.217h-.21c-.517 0-.697-.173-.697-.66v-2.04z" font-family="Dosis" font-size="7.5" font-weight="400" letter-spacing="0" style="line-height:125%;-inkscape-font-specification:Dosis" transform="translate(-593 -1109.362)" word-spacing="0"></path>
  <path fill="#474545" d="M608 1141.361v2.5h1v-1.5h1.5v-1H608zm0 14.5v2.5h2.5v-1H609v-1.5h-1z" color="#000" font-family="sans-serif" font-weight="400" overflow="visible" style="line-height:normal;text-indent:0;text-align:start;text-decoration-line:none;text-decoration-style:solid;text-decoration-color:#000;text-transform:none;block-progression:tb;isolation:auto;mix-blend-mode:normal" transform="translate(-593 -1109.362)"></path>
</svg>
