<?xml version="1.0" standalone="no"?>
<!DOCTYPE svg PUBLIC "-//W3C//DTD SVG 20010904//EN"
 "http://www.w3.org/TR/2001/REC-SVG-20010904/DTD/svg10.dtd">
<svg version="1.0" xmlns="http://www.w3.org/2000/svg"
 width="1024.000000pt" height="1024.000000pt" viewBox="0 0 1024.000000 1024.000000"
 preserveAspectRatio="xMidYMid meet">

<g transform="translate(0.000000,1024.000000) scale(0.100000,-0.100000)"
fill="#000000" stroke="none">
<path d="M4855 9534 c-597 -46 -1121 -186 -1631 -438 -876 -431 -1578 -1139
-1994 -2011 -252 -528 -388 -1030 -435 -1608 -55 -686 52 -1395 307 -2032 314
-784 851 -1468 1536 -1956 416 -297 951 -543 1441 -663 329 -81 592 -115 936
-123 426 -10 744 26 1170 133 539 135 1128 421 1560 759 342 268 707 653 931
985 289 428 525 948 644 1420 264 1049 151 2152 -318 3105 -307 624 -769 1177
-1333 1595 -596 443 -1341 734 -2089 816 -137 15 -611 27 -725 18z m-1619
-1440 c204 -42 430 -144 755 -340 l86 -52 124 29 c159 37 385 75 519 89 135
14 533 14 680 0 201 -18 535 -74 658 -109 29 -9 42 -4 155 61 381 221 660 322
907 330 l94 3 18 -37 c30 -64 77 -234 93 -342 30 -202 15 -477 -33 -633 l-19
-60 40 -49 c191 -235 315 -540 357 -874 23 -187 7 -532 -35 -783 -58 -345
-204 -650 -419 -876 -275 -288 -716 -493 -1166 -541 -58 -6 -124 -13 -147 -16
l-43 -5 48 -59 c124 -154 191 -323 212 -540 23 -227 8 -2115 -17 -2140 -2 -3
-453 -5 -1001 -5 l-997 0 -6 105 c-4 58 -10 403 -14 768 -7 556 -10 662 -22
658 -106 -41 -285 -59 -516 -53 -218 6 -310 23 -433 82 -159 77 -261 184 -335
355 -105 240 -181 360 -320 505 -53 55 -136 129 -183 165 -100 75 -128 118
-105 159 8 14 26 31 39 38 38 19 156 16 237 -7 202 -56 336 -155 464 -344 179
-262 307 -370 514 -432 80 -24 107 -27 235 -27 166 0 256 19 363 75 59 31 62
35 65 73 16 234 102 449 236 592 l30 33 -25 0 c-82 0 -309 24 -394 41 -228 46
-465 144 -653 268 -103 68 -259 213 -329 306 -172 228 -287 533 -368 969 -77
417 -72 697 17 976 56 177 144 341 271 508 49 65 55 77 46 99 -5 14 -18 65
-29 112 -59 267 -48 548 31 806 45 145 34 135 145 135 52 0 129 -7 170 -16z"/>
</g>
</svg>
