<svg width="105" height="105" viewBox="0 0 105 105" fill="none" xmlns="http://www.w3.org/2000/svg">
<g clip-path="url(#clip0_105_257)">
<path d="M103.73 25.4188L53.6721 0.2625C53.3114 0.0901521 52.9088 0 52.5 0C52.0912 0 51.6886 0.0901521 51.3279 0.2625L1.26977 25.4188C0.887783 25.6112 0.569237 25.8905 0.346291 26.2285C0.123346 26.5665 0.00389564 26.9512 0 27.3438V77.6562C0.00389564 78.0488 0.123346 78.4335 0.346291 78.7715C0.569237 79.1095 0.887783 79.3888 1.26977 79.5813L51.3279 104.738C51.6886 104.91 52.0912 105 52.5 105C52.9088 105 53.3114 104.91 53.6721 104.738L103.73 79.5813C104.112 79.3888 104.431 79.1095 104.654 78.7715C104.877 78.4335 104.996 78.0488 105 77.6562V27.3438C104.996 26.9512 104.877 26.5665 104.654 26.2285C104.431 25.8905 104.112 25.6112 103.73 25.4188ZM52.5 21.875C58.1168 21.8699 63.6485 23.1047 68.606 25.4702C73.5634 27.8357 77.7939 31.2591 80.9232 35.4375L65.9791 43.0938C63.7914 40.5763 60.7807 38.7339 57.3674 37.8238C53.9541 36.9137 50.3087 36.9814 46.9404 38.0174C43.5721 39.0534 40.6492 41.0061 38.5799 43.6025C36.5106 46.199 35.3982 49.3097 35.3982 52.5C35.3982 55.6903 36.5106 58.801 38.5799 61.3975C40.6492 63.9939 43.5721 65.9466 46.9404 66.9826C50.3087 68.0186 53.9541 68.0863 57.3674 67.1762C60.7807 66.2661 63.7914 64.4237 65.9791 61.9062L80.9232 69.5625C77.6351 73.953 73.134 77.5061 67.8583 79.876C62.5825 82.2459 56.7118 83.3519 50.8173 83.0863C44.9229 82.8207 39.2056 81.1926 34.2219 78.3604C29.2383 75.5283 25.1579 71.5885 22.3781 66.9246C19.5983 62.2607 18.2136 57.0315 18.3589 51.746C18.5042 46.4605 20.1745 41.2988 23.2072 36.7631C26.24 32.2274 30.5318 28.4724 35.6651 25.8634C40.7983 23.2544 46.5981 21.8804 52.5 21.875ZM67.1512 54.6875V50.3125H70.9116V46.9H75.7953V50.3125H79.6046V54.6875H75.7953V58.0563H70.9116V54.6875H67.1512ZM97.2349 50.3125V54.6875H93.5232V58.0563H88.6395V54.6875H84.8302V50.3125H88.6395V46.9H93.5232V50.3125H97.2349Z" fill="#8E297E"/>
</g>
<defs>
<clipPath id="clip0_105_257">
<rect width="105" height="105" fill="white"/>
</clipPath>
</defs>
</svg>
